<?xml version="1.0" encoding="utf-8"?>
<!-- Generator: Adobe Illustrator 19.2.1, SVG Export Plug-In . SVG Version: 6.00 Build 0)  -->
<svg version="1.1" id="Layer_1" xmlns="http://www.w3.org/2000/svg" xmlns:xlink="http://www.w3.org/1999/xlink" x="0px" y="0px"
	 viewBox="0 0 70 70" style="enable-background:new 0 0 70 70;" xml:space="preserve">
<style type="text/css">
	.st0{display:none;}
	.st1{display:inline;}
	.st2{fill:#013D46;}
	.st3{fill:#FFAB31;}
</style>
<g class="st0">
	<g class="st1">
		<path class="st2" d="M45.6,60.6c-0.3,0-0.6-0.3-0.6-0.6c0-4.1,0-7.1,0-9.2c0-0.4-0.1-0.9-0.1-1.7c-0.3-7.3-3.6-11.4-9.2-11.4
			c-0.1,0-0.2,0-0.3,0c-5.8,0.1-9.5,4.7-9.5,11.7V60c0,0.3-0.3,0.6-0.6,0.6s-0.6-0.3-0.6-0.6V46.4c0-0.2,0.1-0.4,0.3-0.5
			c1.1-5.6,5-9.3,10.4-9.4c0.1,0,0.2,0,0.3,0c5.3,0,8.9,3.4,10.1,9.3c0.5,0.1,0.5,0.6,0.5,0.9c0.1,2.6,0.1,3.8,0,4.4c0,2,0,4.9,0,9
			C46.2,60.3,45.9,60.6,45.6,60.6C45.6,60.6,45.6,60.6,45.6,60.6z"/>
	</g>
	<g class="st1">
		<path class="st2" d="M52.5,70c-0.7,0-2.5,0-6.9,0c-0.3,0-0.6-0.3-0.6-0.6V33.5H25.8v35.9c0,0.3-0.3,0.6-0.6,0.6H11.7
			c-0.3,0-0.6-0.3-0.6-0.6L11,27.2H9.5c-0.3,0-0.6-0.3-0.6-0.6v-3.2c0-0.3,0.3-0.6,0.6-0.6h2.7v-6.4c0-0.3,0.3-0.6,0.6-0.6h0.7V12
			c0-0.3,0.3-0.6,0.6-0.6h3.1V6c0-0.3,0.3-0.6,0.6-0.6h5.4c0.9-1,4.5-4.7,11.2-5.3C34.5,0,34.6,0,34.7,0h1.4c0.1,0,0.2,0,0.3,0.1
			c6.7,0.6,10.3,4.3,11.2,5.3H53c0.3,0,0.6,0.3,0.6,0.6v5.4h3.1c0.3,0,0.6,0.3,0.6,0.6v3.7H58c0.3,0,0.6,0.3,0.6,0.6v6.4h2.7
			c0.3,0,0.6,0.3,0.6,0.6v3.2c0,0.3-0.3,0.6-0.6,0.6h-1.5l-0.1,42.2c0,0.3-0.3,0.6-0.6,0.6c-5.3,0-5.7,0-5.9,0
			C53.1,70,53,70,52.5,70z M46.2,68.8c6.6,0,6.7,0,6.9,0c0.2,0,0.6,0,5.4,0l0.1-42.2c0-0.3,0.3-0.6,0.6-0.6h1.5v-2H58
			c-0.3,0-0.6-0.3-0.6-0.6v-6.4h-0.7c-0.3,0-0.6-0.3-0.6-0.6v-3.7H53c-0.3,0-0.6-0.3-0.6-0.6V6.6h-5c-0.2,0-0.4-0.1-0.5-0.2
			c0,0-3.8-4.8-11.4-5.1C27.8,1.5,24,6.3,24,6.4c-0.1,0.2-0.3,0.2-0.5,0.2h-5V12c0,0.3-0.3,0.6-0.6,0.6h-3.1v3.7
			c0,0.3-0.3,0.6-0.6,0.6h-0.7v6.4c0,0.3-0.3,0.6-0.6,0.6h-2.7v2h1.5c0.3,0,0.6,0.3,0.6,0.6l0.1,42.2h12.3V32.9
			c0-0.3,0.3-0.6,0.6-0.6h20.4c0.3,0,0.6,0.3,0.6,0.6V68.8z"/>
	</g>
	<g class="st1">
		<path class="st2" d="M59.6,27.2H11.2c-0.3,0-0.6-0.3-0.6-0.6s0.3-0.6,0.6-0.6h48.4c0.3,0,0.6,0.3,0.6,0.6S59.9,27.2,59.6,27.2z"/>
	</g>
	<g class="st1">
		<path class="st2" d="M52.9,16.9H17.9c-0.3,0-0.6-0.3-0.6-0.6c0-0.3,0.3-0.6,0.6-0.6h35.1c0.3,0,0.6,0.3,0.6,0.6
			C53.6,16.6,53.3,16.9,52.9,16.9z"/>
	</g>
	<g class="st1">
		<g>
			<path class="st2" d="M24.9,43.3H11.8c-0.3,0-0.6-0.3-0.6-0.6s0.3-0.6,0.6-0.6h13.1c0.3,0,0.6,0.3,0.6,0.6S25.2,43.3,24.9,43.3z"
				/>
		</g>
		<g>
			<path class="st2" d="M24.9,50.6H11.8c-0.3,0-0.6-0.3-0.6-0.6s0.3-0.6,0.6-0.6h13.1c0.3,0,0.6,0.3,0.6,0.6S25.2,50.6,24.9,50.6z"
				/>
		</g>
		<g>
			<path class="st2" d="M59,43.3H45.9c-0.3,0-0.6-0.3-0.6-0.6s0.3-0.6,0.6-0.6H59c0.3,0,0.6,0.3,0.6,0.6S59.3,43.3,59,43.3z"/>
		</g>
		<g>
			<path class="st2" d="M59,50.6H45.9c-0.3,0-0.6-0.3-0.6-0.6s0.3-0.6,0.6-0.6H59c0.3,0,0.6,0.3,0.6,0.6S59.3,50.6,59,50.6z"/>
		</g>
	</g>
	<g class="st1">
		<g>
			<circle class="st3" cx="18.5" cy="35.2" r="2.3"/>
			<path class="st2" d="M18.5,38.1c-1.6,0-2.9-1.3-2.9-2.9s1.3-2.9,2.9-2.9s2.9,1.3,2.9,2.9S20.1,38.1,18.5,38.1z M18.5,33.5
				c-0.9,0-1.7,0.8-1.7,1.7s0.8,1.7,1.7,1.7s1.7-0.8,1.7-1.7S19.5,33.5,18.5,33.5z"/>
		</g>
		<g>
			<circle class="st3" cx="52.3" cy="35.2" r="2.3"/>
			<path class="st2" d="M52.3,38.1c-1.6,0-2.9-1.3-2.9-2.9s1.3-2.9,2.9-2.9s2.9,1.3,2.9,2.9S53.9,38.1,52.3,38.1z M52.3,33.5
				c-0.9,0-1.7,0.8-1.7,1.7s0.8,1.7,1.7,1.7s1.7-0.8,1.7-1.7S53.2,33.5,52.3,33.5z"/>
		</g>
	</g>
	<g class="st1">
		<rect x="27" y="8.4" class="st3" width="16.9" height="4.6"/>
		<path class="st2" d="M43.9,13.6H27c-0.3,0-0.6-0.3-0.6-0.6V8.4c0-0.3,0.3-0.6,0.6-0.6h16.9c0.3,0,0.6,0.3,0.6,0.6V13
			C44.5,13.3,44.2,13.6,43.9,13.6z M27.6,12.4h15.7V9H27.6V12.4z"/>
	</g>
</g>
<g>
	<g>
		<path class="st2" d="M68.8,49.4H1.2c-0.3,0-0.5-0.2-0.5-0.5s0.2-0.5,0.5-0.5h67.6c0.3,0,0.5,0.2,0.5,0.5S69.1,49.4,68.8,49.4z"/>
	</g>
	<g>
		<path class="st2" d="M68.8,51.7H1.2c-0.3,0-0.5-0.2-0.5-0.5c0-0.3,0.2-0.5,0.5-0.5h67.6c0.3,0,0.5,0.2,0.5,0.5
			C69.3,51.5,69.1,51.7,68.8,51.7z"/>
	</g>
	<g>
		<g>
			<path class="st2" d="M2,38.7c-0.2,0-0.4-0.1-0.5-0.3c-0.1-0.3,0-0.6,0.2-0.7l10.4-5.6c0.3-0.1,0.6,0,0.7,0.2
				c0.1,0.3,0,0.6-0.2,0.7L2.3,38.6C2.2,38.6,2.1,38.7,2,38.7z"/>
		</g>
		<g>
			<path class="st2" d="M3,44c-0.1,0-0.3,0-0.4-0.1c-0.2-0.2-0.2-0.5,0-0.7L11.9,33c0.2-0.2,0.5-0.2,0.7,0c0.2,0.2,0.2,0.5,0,0.7
				L3.4,43.9C3.3,44,3.1,44,3,44z"/>
		</g>
		<g>
			<path class="st2" d="M12.5,48.8c-0.1,0-0.2,0-0.2-0.1l-9.6-5.2c-0.3-0.1-0.4-0.5-0.2-0.7c0.1-0.3,0.5-0.4,0.7-0.2l9.6,5.2
				c0.3,0.1,0.4,0.5,0.2,0.7C12.9,48.7,12.7,48.8,12.5,48.8z"/>
		</g>
		<g>
			<path class="st2" d="M12.4,41.6c-0.1,0-0.3-0.1-0.4-0.2l-3.4-3.3c-0.2-0.2-0.2-0.5,0-0.7c0.2-0.2,0.5-0.2,0.7,0l3.4,3.3
				c0.2,0.2,0.2,0.5,0,0.7C12.7,41.5,12.5,41.6,12.4,41.6z"/>
		</g>
		<g>
			<path class="st2" d="M8.2,46.1c-0.1,0-0.2,0-0.3-0.1c-0.2-0.2-0.2-0.5-0.1-0.7l3.9-4.5c0.2-0.2,0.5-0.2,0.7-0.1
				c0.2,0.2,0.2,0.5,0.1,0.7l-3.9,4.5C8.5,46.1,8.4,46.1,8.2,46.1z"/>
		</g>
		<g>
			<path class="st2" d="M2.9,49.1c-0.3,0-0.5-0.2-0.5-0.5V37.7c0-0.3,0.2-0.5,0.5-0.5s0.5,0.2,0.5,0.5v10.9
				C3.4,48.9,3.2,49.1,2.9,49.1z"/>
		</g>
		<g>
			<path class="st2" d="M12.5,49.1c-0.3,0-0.5-0.2-0.5-0.5V32.9c0-0.3,0.2-0.5,0.5-0.5s0.5,0.2,0.5,0.5v15.7
				C13,48.9,12.8,49.1,12.5,49.1z"/>
		</g>
		<g>
			<path class="st2" d="M34.8,42.8c-0.1,0-0.1,0-0.2,0l-22.1-9.7c-0.3-0.1-0.4-0.4-0.3-0.7c0.1-0.3,0.4-0.4,0.7-0.3L35,41.8
				c0.3,0.1,0.4,0.4,0.3,0.7C35.2,42.7,35,42.8,34.8,42.8z"/>
		</g>
		<g>
			<path class="st2" d="M24,44c-0.1,0-0.3,0-0.4-0.1L12.4,33.8c-0.2-0.2-0.2-0.5,0-0.7c0.2-0.2,0.5-0.2,0.7,0l11.3,10.1
				c0.2,0.2,0.2,0.5,0,0.7C24.3,44,24.2,44,24,44z"/>
		</g>
		<g>
			<path class="st2" d="M34.6,46.2c-0.1,0-0.2,0-0.3-0.1l-12.5-8.9c-0.2-0.2-0.3-0.5-0.1-0.7c0.2-0.2,0.5-0.3,0.7-0.1l12.5,8.9
				c0.2,0.2,0.3,0.5,0.1,0.7C34.9,46.1,34.7,46.2,34.6,46.2z"/>
		</g>
		<g>
			<path class="st2" d="M24.4,48.5c-0.2,0-0.5-0.2-0.5-0.4c-0.1-0.3,0.1-0.6,0.4-0.6l9.9-2.1c0.3-0.1,0.6,0.1,0.6,0.4
				c0.1,0.3-0.1,0.6-0.4,0.6l-9.9,2.1C24.5,48.5,24.5,48.5,24.4,48.5z"/>
		</g>
		<g>
			<path class="st2" d="M24.4,47.8c-0.1,0-0.3-0.1-0.4-0.2c-0.2-0.2-0.2-0.6,0-0.7l5.4-4.8c0.2-0.2,0.6-0.2,0.7,0
				c0.2,0.2,0.2,0.6,0,0.7l-5.4,4.8C24.7,47.8,24.5,47.8,24.4,47.8z"/>
		</g>
		<g>
			<path class="st2" d="M12.5,48.8c-0.2,0-0.4-0.1-0.5-0.3c-0.1-0.3,0-0.6,0.3-0.7l11.6-5.2c0.3-0.1,0.6,0,0.7,0.3
				c0.1,0.3,0,0.6-0.3,0.7l-11.6,5.2C12.7,48.8,12.6,48.8,12.5,48.8z"/>
		</g>
		<g>
			<path class="st2" d="M12.7,41.6c-0.2,0-0.3-0.1-0.4-0.2c-0.2-0.2-0.2-0.6,0.1-0.7l4.1-3.3c0.2-0.2,0.6-0.2,0.7,0.1
				c0.2,0.2,0.2,0.6-0.1,0.7L13,41.4C12.9,41.5,12.8,41.6,12.7,41.6z"/>
		</g>
		<g>
			<path class="st2" d="M17.7,46.1c-0.1,0-0.3,0-0.4-0.1l-4.7-4.5c-0.2-0.2-0.2-0.5,0-0.7c0.2-0.2,0.5-0.2,0.7,0l4.7,4.5
				c0.2,0.2,0.2,0.5,0,0.7C18,46.1,17.8,46.1,17.7,46.1z"/>
		</g>
		<g>
			<path class="st2" d="M24.2,49.1c-0.3,0-0.5-0.2-0.5-0.5V37.7c0-0.3,0.2-0.5,0.5-0.5s0.5,0.2,0.5,0.5v10.9
				C24.7,48.9,24.4,49.1,24.2,49.1z"/>
		</g>
		<g>
			<path class="st2" d="M34.8,49.1c-0.3,0-0.5-0.2-0.5-0.5v-6.1c0-0.3,0.2-0.5,0.5-0.5s0.5,0.2,0.5,0.5v6.1
				C35.3,48.9,35.1,49.1,34.8,49.1z"/>
		</g>
		<g>
			<path class="st2" d="M12.5,49.1c-0.3,0-0.5-0.2-0.5-0.5V32.9c0-0.3,0.2-0.5,0.5-0.5s0.5,0.2,0.5,0.5v15.7
				C13,48.9,12.8,49.1,12.5,49.1z"/>
		</g>
	</g>
	<g>
		<g>
			<path class="st2" d="M67.7,38.7c-0.1,0-0.2,0-0.2-0.1L57.1,33c-0.3-0.1-0.4-0.5-0.2-0.7c0.1-0.3,0.5-0.4,0.7-0.2l10.4,5.6
				c0.3,0.1,0.4,0.5,0.2,0.7C68,38.6,67.9,38.7,67.7,38.7z"/>
		</g>
		<g>
			<path class="st2" d="M66.7,44c-0.1,0-0.3-0.1-0.4-0.2L57,33.7c-0.2-0.2-0.2-0.5,0-0.7c0.2-0.2,0.5-0.2,0.7,0l9.3,10.1
				c0.2,0.2,0.2,0.5,0,0.7C67,44,66.8,44,66.7,44z"/>
		</g>
		<g>
			<path class="st2" d="M57.2,48.8c-0.2,0-0.4-0.1-0.5-0.3c-0.1-0.3,0-0.6,0.2-0.7l9.6-5.2c0.3-0.1,0.6,0,0.7,0.2
				c0.1,0.3,0,0.6-0.2,0.7l-9.6,5.2C57.3,48.8,57.3,48.8,57.2,48.8z"/>
		</g>
		<g>
			<path class="st2" d="M57.3,41.6c-0.1,0-0.3-0.1-0.4-0.2c-0.2-0.2-0.2-0.5,0-0.7l3.4-3.3c0.2-0.2,0.5-0.2,0.7,0
				c0.2,0.2,0.2,0.5,0,0.7l-3.4,3.3C57.6,41.5,57.4,41.6,57.3,41.6z"/>
		</g>
		<g>
			<path class="st2" d="M61.5,46.1c-0.1,0-0.3-0.1-0.4-0.2l-3.9-4.5c-0.2-0.2-0.2-0.6,0.1-0.7c0.2-0.2,0.6-0.2,0.7,0.1l3.9,4.5
				c0.2,0.2,0.2,0.6-0.1,0.7C61.7,46.1,61.6,46.1,61.5,46.1z"/>
		</g>
		<g>
			<path class="st2" d="M66.8,49.1c-0.3,0-0.5-0.2-0.5-0.5V37.7c0-0.3,0.2-0.5,0.5-0.5s0.5,0.2,0.5,0.5v10.9
				C67.3,48.9,67.1,49.1,66.8,49.1z"/>
		</g>
		<g>
			<path class="st2" d="M57.2,49.1c-0.3,0-0.5-0.2-0.5-0.5V32.9c0-0.3,0.2-0.5,0.5-0.5c0.3,0,0.5,0.2,0.5,0.5v15.7
				C57.7,48.9,57.5,49.1,57.2,49.1z"/>
		</g>
		<g>
			<path class="st2" d="M34.9,42.8c-0.2,0-0.4-0.1-0.5-0.3c-0.1-0.3,0-0.6,0.3-0.7l22.1-9.7c0.3-0.1,0.6,0,0.7,0.3
				c0.1,0.3,0,0.6-0.3,0.7l-22.1,9.7C35.1,42.8,35,42.8,34.9,42.8z"/>
		</g>
		<g>
			<path class="st2" d="M45.6,44c-0.1,0-0.3-0.1-0.4-0.2c-0.2-0.2-0.2-0.6,0-0.7L56.6,33c0.2-0.2,0.5-0.2,0.7,0
				c0.2,0.2,0.2,0.6,0,0.7L46,43.9C45.9,44,45.8,44,45.6,44z"/>
		</g>
		<g>
			<path class="st2" d="M35.1,46.2c-0.2,0-0.3-0.1-0.4-0.2c-0.2-0.2-0.1-0.6,0.1-0.7l12.5-8.9c0.2-0.2,0.6-0.1,0.7,0.1
				c0.2,0.2,0.1,0.6-0.1,0.7l-12.5,8.9C35.3,46.2,35.2,46.2,35.1,46.2z"/>
		</g>
		<g>
			<path class="st2" d="M45.3,48.5c0,0-0.1,0-0.1,0l-9.9-2.1c-0.3-0.1-0.5-0.3-0.4-0.6c0.1-0.3,0.3-0.5,0.6-0.4l9.9,2.1
				c0.3,0.1,0.5,0.3,0.4,0.6C45.7,48.3,45.5,48.5,45.3,48.5z"/>
		</g>
		<g>
			<path class="st2" d="M45.3,47.8c-0.1,0-0.2,0-0.3-0.1l-5.4-4.8c-0.2-0.2-0.2-0.5,0-0.7c0.2-0.2,0.5-0.2,0.7,0l5.4,4.8
				c0.2,0.2,0.2,0.5,0,0.7C45.6,47.8,45.4,47.8,45.3,47.8z"/>
		</g>
		<g>
			<path class="st2" d="M57.2,48.8c-0.1,0-0.1,0-0.2,0l-11.6-5.2c-0.3-0.1-0.4-0.4-0.3-0.7c0.1-0.3,0.4-0.4,0.7-0.3l11.6,5.2
				c0.3,0.1,0.4,0.4,0.3,0.7C57.6,48.7,57.4,48.8,57.2,48.8z"/>
		</g>
		<g>
			<path class="st2" d="M57,41.6c-0.1,0-0.2,0-0.3-0.1l-4.1-3.3c-0.2-0.2-0.3-0.5-0.1-0.7c0.2-0.2,0.5-0.3,0.7-0.1l4.1,3.3
				c0.2,0.2,0.3,0.5,0.1,0.7C57.3,41.5,57.2,41.6,57,41.6z"/>
		</g>
		<g>
			<path class="st2" d="M52,46.1c-0.1,0-0.3-0.1-0.4-0.2c-0.2-0.2-0.2-0.5,0-0.7l4.7-4.5c0.2-0.2,0.5-0.2,0.7,0
				c0.2,0.2,0.2,0.5,0,0.7L52.4,46C52.2,46.1,52.1,46.1,52,46.1z"/>
		</g>
		<g>
			<path class="st2" d="M45.5,49.1c-0.3,0-0.5-0.2-0.5-0.5V37.7c0-0.3,0.2-0.5,0.5-0.5c0.3,0,0.5,0.2,0.5,0.5v10.9
				C46.1,48.9,45.8,49.1,45.5,49.1z"/>
		</g>
		<g>
			<path class="st2" d="M34.9,49.1c-0.3,0-0.5-0.2-0.5-0.5v-6.1c0-0.3,0.2-0.5,0.5-0.5s0.5,0.2,0.5,0.5v6.1
				C35.4,48.9,35.2,49.1,34.9,49.1z"/>
		</g>
		<g>
			<path class="st2" d="M57.2,49.1c-0.3,0-0.5-0.2-0.5-0.5V32.9c0-0.3,0.2-0.5,0.5-0.5c0.3,0,0.5,0.2,0.5,0.5v15.7
				C57.7,48.9,57.5,49.1,57.2,49.1z"/>
		</g>
	</g>
	<g>
		<circle class="st3" cx="23.9" cy="23.6" r="5.4"/>
		<path class="st2" d="M23.9,29.5c-3.3,0-6-2.7-6-6s2.7-6,6-6c3.3,0,6,2.7,6,6S27.2,29.5,23.9,29.5z M23.9,18.7
			c-2.7,0-4.9,2.2-4.9,4.9s2.2,4.9,4.9,4.9c2.7,0,4.9-2.2,4.9-4.9S26.6,18.7,23.9,18.7z"/>
	</g>
</g>
</svg>
