<?xml version="1.0" encoding="utf-8"?>
<!-- Generator: Adobe Illustrator 19.2.1, SVG Export Plug-In . SVG Version: 6.00 Build 0)  -->
<svg version="1.1" id="Layer_1" xmlns="http://www.w3.org/2000/svg" xmlns:xlink="http://www.w3.org/1999/xlink" x="0px" y="0px"
	 viewBox="0 0 70 70" style="enable-background:new 0 0 70 70;" xml:space="preserve">
<style type="text/css">
	.st0{display:none;}
	.st1{display:inline;}
	.st2{fill:#013D46;}
	.st3{fill:#FFAB31;}
	.st4{fill:none;stroke:#000000;stroke-width:2;stroke-linecap:round;stroke-linejoin:round;stroke-miterlimit:10;}
</style>
<g class="st0">
	<g class="st1">
		<path class="st2" d="M45.6,60.6c-0.3,0-0.6-0.3-0.6-0.6c0-4.1,0-7.1,0-9.2c0-0.4-0.1-0.9-0.1-1.7c-0.3-7.3-3.6-11.4-9.2-11.4
			c-0.1,0-0.2,0-0.3,0c-5.8,0.1-9.5,4.7-9.5,11.7V60c0,0.3-0.3,0.6-0.6,0.6s-0.6-0.3-0.6-0.6V46.4c0-0.2,0.1-0.4,0.3-0.5
			c1.1-5.6,5-9.3,10.4-9.4c0.1,0,0.2,0,0.3,0c5.3,0,8.9,3.4,10.1,9.3c0.5,0.1,0.5,0.6,0.5,0.9c0.1,2.6,0.1,3.8,0,4.4c0,2,0,4.9,0,9
			C46.2,60.3,45.9,60.6,45.6,60.6C45.6,60.6,45.6,60.6,45.6,60.6z"/>
	</g>
	<g class="st1">
		<path class="st2" d="M52.5,70c-0.7,0-2.5,0-6.9,0c-0.3,0-0.6-0.3-0.6-0.6V33.5H25.8v35.9c0,0.3-0.3,0.6-0.6,0.6H11.7
			c-0.3,0-0.6-0.3-0.6-0.6L11,27.2H9.5c-0.3,0-0.6-0.3-0.6-0.6v-3.2c0-0.3,0.3-0.6,0.6-0.6h2.7v-6.4c0-0.3,0.3-0.6,0.6-0.6h0.7V12
			c0-0.3,0.3-0.6,0.6-0.6h3.1V6c0-0.3,0.3-0.6,0.6-0.6h5.4c0.9-1,4.5-4.7,11.2-5.3C34.5,0,34.6,0,34.7,0h1.4c0.1,0,0.2,0,0.3,0.1
			c6.7,0.6,10.3,4.3,11.2,5.3H53c0.3,0,0.6,0.3,0.6,0.6v5.4h3.1c0.3,0,0.6,0.3,0.6,0.6v3.7H58c0.3,0,0.6,0.3,0.6,0.6v6.4h2.7
			c0.3,0,0.6,0.3,0.6,0.6v3.2c0,0.3-0.3,0.6-0.6,0.6h-1.5l-0.1,42.2c0,0.3-0.3,0.6-0.6,0.6c-5.3,0-5.7,0-5.9,0
			C53.1,70,53,70,52.5,70z M46.2,68.8c6.6,0,6.7,0,6.9,0c0.2,0,0.6,0,5.4,0l0.1-42.2c0-0.3,0.3-0.6,0.6-0.6h1.5v-2H58
			c-0.3,0-0.6-0.3-0.6-0.6v-6.4h-0.7c-0.3,0-0.6-0.3-0.6-0.6v-3.7H53c-0.3,0-0.6-0.3-0.6-0.6V6.6h-5c-0.2,0-0.4-0.1-0.5-0.2
			c0,0-3.8-4.8-11.4-5.1C27.8,1.5,24,6.3,24,6.4c-0.1,0.2-0.3,0.2-0.5,0.2h-5V12c0,0.3-0.3,0.6-0.6,0.6h-3.1v3.7
			c0,0.3-0.3,0.6-0.6,0.6h-0.7v6.4c0,0.3-0.3,0.6-0.6,0.6h-2.7v2h1.5c0.3,0,0.6,0.3,0.6,0.6l0.1,42.2h12.3V32.9
			c0-0.3,0.3-0.6,0.6-0.6h20.4c0.3,0,0.6,0.3,0.6,0.6V68.8z"/>
	</g>
	<g class="st1">
		<path class="st2" d="M59.6,27.2H11.2c-0.3,0-0.6-0.3-0.6-0.6s0.3-0.6,0.6-0.6h48.4c0.3,0,0.6,0.3,0.6,0.6S59.9,27.2,59.6,27.2z"/>
	</g>
	<g class="st1">
		<path class="st2" d="M52.9,16.9H17.9c-0.3,0-0.6-0.3-0.6-0.6c0-0.3,0.3-0.6,0.6-0.6h35.1c0.3,0,0.6,0.3,0.6,0.6
			C53.6,16.6,53.3,16.9,52.9,16.9z"/>
	</g>
	<g class="st1">
		<g>
			<path class="st2" d="M24.9,43.3H11.8c-0.3,0-0.6-0.3-0.6-0.6s0.3-0.6,0.6-0.6h13.1c0.3,0,0.6,0.3,0.6,0.6S25.2,43.3,24.9,43.3z"
				/>
		</g>
		<g>
			<path class="st2" d="M24.9,50.6H11.8c-0.3,0-0.6-0.3-0.6-0.6s0.3-0.6,0.6-0.6h13.1c0.3,0,0.6,0.3,0.6,0.6S25.2,50.6,24.9,50.6z"
				/>
		</g>
		<g>
			<path class="st2" d="M59,43.3H45.9c-0.3,0-0.6-0.3-0.6-0.6s0.3-0.6,0.6-0.6H59c0.3,0,0.6,0.3,0.6,0.6S59.3,43.3,59,43.3z"/>
		</g>
		<g>
			<path class="st2" d="M59,50.6H45.9c-0.3,0-0.6-0.3-0.6-0.6s0.3-0.6,0.6-0.6H59c0.3,0,0.6,0.3,0.6,0.6S59.3,50.6,59,50.6z"/>
		</g>
	</g>
	<g class="st1">
		<g>
			<circle class="st3" cx="18.5" cy="35.2" r="2.3"/>
			<path class="st2" d="M18.5,38.1c-1.6,0-2.9-1.3-2.9-2.9s1.3-2.9,2.9-2.9s2.9,1.3,2.9,2.9S20.1,38.1,18.5,38.1z M18.5,33.5
				c-0.9,0-1.7,0.8-1.7,1.7s0.8,1.7,1.7,1.7s1.7-0.8,1.7-1.7S19.5,33.5,18.5,33.5z"/>
		</g>
		<g>
			<circle class="st3" cx="52.3" cy="35.2" r="2.3"/>
			<path class="st2" d="M52.3,38.1c-1.6,0-2.9-1.3-2.9-2.9s1.3-2.9,2.9-2.9s2.9,1.3,2.9,2.9S53.9,38.1,52.3,38.1z M52.3,33.5
				c-0.9,0-1.7,0.8-1.7,1.7s0.8,1.7,1.7,1.7s1.7-0.8,1.7-1.7S53.2,33.5,52.3,33.5z"/>
		</g>
	</g>
	<g class="st1">
		<rect x="27" y="8.4" class="st3" width="16.9" height="4.6"/>
		<path class="st2" d="M43.9,13.6H27c-0.3,0-0.6-0.3-0.6-0.6V8.4c0-0.3,0.3-0.6,0.6-0.6h16.9c0.3,0,0.6,0.3,0.6,0.6V13
			C44.5,13.3,44.2,13.6,43.9,13.6z M27.6,12.4h15.7V9H27.6V12.4z"/>
	</g>
</g>
<g class="st0">
	<g class="st1">
		<path class="st2" d="M68.8,49.4H1.2c-0.3,0-0.5-0.2-0.5-0.5s0.2-0.5,0.5-0.5h67.6c0.3,0,0.5,0.2,0.5,0.5S69.1,49.4,68.8,49.4z"/>
	</g>
	<g class="st1">
		<path class="st2" d="M68.8,51.7H1.2c-0.3,0-0.5-0.2-0.5-0.5c0-0.3,0.2-0.5,0.5-0.5h67.6c0.3,0,0.5,0.2,0.5,0.5
			C69.3,51.5,69.1,51.7,68.8,51.7z"/>
	</g>
	<g class="st1">
		<g>
			<path class="st2" d="M2,38.7c-0.2,0-0.4-0.1-0.5-0.3c-0.1-0.3,0-0.6,0.2-0.7l10.4-5.6c0.3-0.1,0.6,0,0.7,0.2
				c0.1,0.3,0,0.6-0.2,0.7L2.3,38.6C2.2,38.6,2.1,38.7,2,38.7z"/>
		</g>
		<g>
			<path class="st2" d="M3,44c-0.1,0-0.3,0-0.4-0.1c-0.2-0.2-0.2-0.5,0-0.7L11.9,33c0.2-0.2,0.5-0.2,0.7,0c0.2,0.2,0.2,0.5,0,0.7
				L3.4,43.9C3.3,44,3.1,44,3,44z"/>
		</g>
		<g>
			<path class="st2" d="M12.5,48.8c-0.1,0-0.2,0-0.2-0.1l-9.6-5.2c-0.3-0.1-0.4-0.5-0.2-0.7c0.1-0.3,0.5-0.4,0.7-0.2l9.6,5.2
				c0.3,0.1,0.4,0.5,0.2,0.7C12.9,48.7,12.7,48.8,12.5,48.8z"/>
		</g>
		<g>
			<path class="st2" d="M12.4,41.6c-0.1,0-0.3-0.1-0.4-0.2l-3.4-3.3c-0.2-0.2-0.2-0.5,0-0.7c0.2-0.2,0.5-0.2,0.7,0l3.4,3.3
				c0.2,0.2,0.2,0.5,0,0.7C12.7,41.5,12.5,41.6,12.4,41.6z"/>
		</g>
		<g>
			<path class="st2" d="M8.2,46.1c-0.1,0-0.2,0-0.3-0.1c-0.2-0.2-0.2-0.5-0.1-0.7l3.9-4.5c0.2-0.2,0.5-0.2,0.7-0.1
				c0.2,0.2,0.2,0.5,0.1,0.7l-3.9,4.5C8.5,46.1,8.4,46.1,8.2,46.1z"/>
		</g>
		<g>
			<path class="st2" d="M2.9,49.1c-0.3,0-0.5-0.2-0.5-0.5V37.7c0-0.3,0.2-0.5,0.5-0.5s0.5,0.2,0.5,0.5v10.9
				C3.4,48.9,3.2,49.1,2.9,49.1z"/>
		</g>
		<g>
			<path class="st2" d="M12.5,49.1c-0.3,0-0.5-0.2-0.5-0.5V32.9c0-0.3,0.2-0.5,0.5-0.5s0.5,0.2,0.5,0.5v15.7
				C13,48.9,12.8,49.1,12.5,49.1z"/>
		</g>
		<g>
			<path class="st2" d="M34.8,42.8c-0.1,0-0.1,0-0.2,0l-22.1-9.7c-0.3-0.1-0.4-0.4-0.3-0.7c0.1-0.3,0.4-0.4,0.7-0.3L35,41.8
				c0.3,0.1,0.4,0.4,0.3,0.7C35.2,42.7,35,42.8,34.8,42.8z"/>
		</g>
		<g>
			<path class="st2" d="M24,44c-0.1,0-0.3,0-0.4-0.1L12.4,33.8c-0.2-0.2-0.2-0.5,0-0.7c0.2-0.2,0.5-0.2,0.7,0l11.3,10.1
				c0.2,0.2,0.2,0.5,0,0.7C24.3,44,24.2,44,24,44z"/>
		</g>
		<g>
			<path class="st2" d="M34.6,46.2c-0.1,0-0.2,0-0.3-0.1l-12.5-8.9c-0.2-0.2-0.3-0.5-0.1-0.7c0.2-0.2,0.5-0.3,0.7-0.1l12.5,8.9
				c0.2,0.2,0.3,0.5,0.1,0.7C34.9,46.1,34.7,46.2,34.6,46.2z"/>
		</g>
		<g>
			<path class="st2" d="M24.4,48.5c-0.2,0-0.5-0.2-0.5-0.4c-0.1-0.3,0.1-0.6,0.4-0.6l9.9-2.1c0.3-0.1,0.6,0.1,0.6,0.4
				c0.1,0.3-0.1,0.6-0.4,0.6l-9.9,2.1C24.5,48.5,24.5,48.5,24.4,48.5z"/>
		</g>
		<g>
			<path class="st2" d="M24.4,47.8c-0.1,0-0.3-0.1-0.4-0.2c-0.2-0.2-0.2-0.6,0-0.7l5.4-4.8c0.2-0.2,0.6-0.2,0.7,0
				c0.2,0.2,0.2,0.6,0,0.7l-5.4,4.8C24.7,47.8,24.5,47.8,24.4,47.8z"/>
		</g>
		<g>
			<path class="st2" d="M12.5,48.8c-0.2,0-0.4-0.1-0.5-0.3c-0.1-0.3,0-0.6,0.3-0.7l11.6-5.2c0.3-0.1,0.6,0,0.7,0.3
				c0.1,0.3,0,0.6-0.3,0.7l-11.6,5.2C12.7,48.8,12.6,48.8,12.5,48.8z"/>
		</g>
		<g>
			<path class="st2" d="M12.7,41.6c-0.2,0-0.3-0.1-0.4-0.2c-0.2-0.2-0.2-0.6,0.1-0.7l4.1-3.3c0.2-0.2,0.6-0.2,0.7,0.1
				c0.2,0.2,0.2,0.6-0.1,0.7L13,41.4C12.9,41.5,12.8,41.6,12.7,41.6z"/>
		</g>
		<g>
			<path class="st2" d="M17.7,46.1c-0.1,0-0.3,0-0.4-0.1l-4.7-4.5c-0.2-0.2-0.2-0.5,0-0.7c0.2-0.2,0.5-0.2,0.7,0l4.7,4.5
				c0.2,0.2,0.2,0.5,0,0.7C18,46.1,17.8,46.1,17.7,46.1z"/>
		</g>
		<g>
			<path class="st2" d="M24.2,49.1c-0.3,0-0.5-0.2-0.5-0.5V37.7c0-0.3,0.2-0.5,0.5-0.5s0.5,0.2,0.5,0.5v10.9
				C24.7,48.9,24.4,49.1,24.2,49.1z"/>
		</g>
		<g>
			<path class="st2" d="M34.8,49.1c-0.3,0-0.5-0.2-0.5-0.5v-6.1c0-0.3,0.2-0.5,0.5-0.5s0.5,0.2,0.5,0.5v6.1
				C35.3,48.9,35.1,49.1,34.8,49.1z"/>
		</g>
		<g>
			<path class="st2" d="M12.5,49.1c-0.3,0-0.5-0.2-0.5-0.5V32.9c0-0.3,0.2-0.5,0.5-0.5s0.5,0.2,0.5,0.5v15.7
				C13,48.9,12.8,49.1,12.5,49.1z"/>
		</g>
	</g>
	<g class="st1">
		<g>
			<path class="st2" d="M67.7,38.7c-0.1,0-0.2,0-0.2-0.1L57.1,33c-0.3-0.1-0.4-0.5-0.2-0.7c0.1-0.3,0.5-0.4,0.7-0.2l10.4,5.6
				c0.3,0.1,0.4,0.5,0.2,0.7C68,38.6,67.9,38.7,67.7,38.7z"/>
		</g>
		<g>
			<path class="st2" d="M66.7,44c-0.1,0-0.3-0.1-0.4-0.2L57,33.7c-0.2-0.2-0.2-0.5,0-0.7c0.2-0.2,0.5-0.2,0.7,0l9.3,10.1
				c0.2,0.2,0.2,0.5,0,0.7C67,44,66.8,44,66.7,44z"/>
		</g>
		<g>
			<path class="st2" d="M57.2,48.8c-0.2,0-0.4-0.1-0.5-0.3c-0.1-0.3,0-0.6,0.2-0.7l9.6-5.2c0.3-0.1,0.6,0,0.7,0.2
				c0.1,0.3,0,0.6-0.2,0.7l-9.6,5.2C57.3,48.8,57.3,48.8,57.2,48.8z"/>
		</g>
		<g>
			<path class="st2" d="M57.3,41.6c-0.1,0-0.3-0.1-0.4-0.2c-0.2-0.2-0.2-0.5,0-0.7l3.4-3.3c0.2-0.2,0.5-0.2,0.7,0
				c0.2,0.2,0.2,0.5,0,0.7l-3.4,3.3C57.6,41.5,57.4,41.6,57.3,41.6z"/>
		</g>
		<g>
			<path class="st2" d="M61.5,46.1c-0.1,0-0.3-0.1-0.4-0.2l-3.9-4.5c-0.2-0.2-0.2-0.6,0.1-0.7c0.2-0.2,0.6-0.2,0.7,0.1l3.9,4.5
				c0.2,0.2,0.2,0.6-0.1,0.7C61.7,46.1,61.6,46.1,61.5,46.1z"/>
		</g>
		<g>
			<path class="st2" d="M66.8,49.1c-0.3,0-0.5-0.2-0.5-0.5V37.7c0-0.3,0.2-0.5,0.5-0.5s0.5,0.2,0.5,0.5v10.9
				C67.3,48.9,67.1,49.1,66.8,49.1z"/>
		</g>
		<g>
			<path class="st2" d="M57.2,49.1c-0.3,0-0.5-0.2-0.5-0.5V32.9c0-0.3,0.2-0.5,0.5-0.5c0.3,0,0.5,0.2,0.5,0.5v15.7
				C57.7,48.9,57.5,49.1,57.2,49.1z"/>
		</g>
		<g>
			<path class="st2" d="M34.9,42.8c-0.2,0-0.4-0.1-0.5-0.3c-0.1-0.3,0-0.6,0.3-0.7l22.1-9.7c0.3-0.1,0.6,0,0.7,0.3
				c0.1,0.3,0,0.6-0.3,0.7l-22.1,9.7C35.1,42.8,35,42.8,34.9,42.8z"/>
		</g>
		<g>
			<path class="st2" d="M45.6,44c-0.1,0-0.3-0.1-0.4-0.2c-0.2-0.2-0.2-0.6,0-0.7L56.6,33c0.2-0.2,0.5-0.2,0.7,0
				c0.2,0.2,0.2,0.6,0,0.7L46,43.9C45.9,44,45.8,44,45.6,44z"/>
		</g>
		<g>
			<path class="st2" d="M35.1,46.2c-0.2,0-0.3-0.1-0.4-0.2c-0.2-0.2-0.1-0.6,0.1-0.7l12.5-8.9c0.2-0.2,0.6-0.1,0.7,0.1
				c0.2,0.2,0.1,0.6-0.1,0.7l-12.5,8.9C35.3,46.2,35.2,46.2,35.1,46.2z"/>
		</g>
		<g>
			<path class="st2" d="M45.3,48.5c0,0-0.1,0-0.1,0l-9.9-2.1c-0.3-0.1-0.5-0.3-0.4-0.6c0.1-0.3,0.3-0.5,0.6-0.4l9.9,2.1
				c0.3,0.1,0.5,0.3,0.4,0.6C45.7,48.3,45.5,48.5,45.3,48.5z"/>
		</g>
		<g>
			<path class="st2" d="M45.3,47.8c-0.1,0-0.2,0-0.3-0.1l-5.4-4.8c-0.2-0.2-0.2-0.5,0-0.7c0.2-0.2,0.5-0.2,0.7,0l5.4,4.8
				c0.2,0.2,0.2,0.5,0,0.7C45.6,47.8,45.4,47.8,45.3,47.8z"/>
		</g>
		<g>
			<path class="st2" d="M57.2,48.8c-0.1,0-0.1,0-0.2,0l-11.6-5.2c-0.3-0.1-0.4-0.4-0.3-0.7c0.1-0.3,0.4-0.4,0.7-0.3l11.6,5.2
				c0.3,0.1,0.4,0.4,0.3,0.7C57.6,48.7,57.4,48.8,57.2,48.8z"/>
		</g>
		<g>
			<path class="st2" d="M57,41.6c-0.1,0-0.2,0-0.3-0.1l-4.1-3.3c-0.2-0.2-0.3-0.5-0.1-0.7c0.2-0.2,0.5-0.3,0.7-0.1l4.1,3.3
				c0.2,0.2,0.3,0.5,0.1,0.7C57.3,41.5,57.2,41.6,57,41.6z"/>
		</g>
		<g>
			<path class="st2" d="M52,46.1c-0.1,0-0.3-0.1-0.4-0.2c-0.2-0.2-0.2-0.5,0-0.7l4.7-4.5c0.2-0.2,0.5-0.2,0.7,0
				c0.2,0.2,0.2,0.5,0,0.7L52.4,46C52.2,46.1,52.1,46.1,52,46.1z"/>
		</g>
		<g>
			<path class="st2" d="M45.5,49.1c-0.3,0-0.5-0.2-0.5-0.5V37.7c0-0.3,0.2-0.5,0.5-0.5c0.3,0,0.5,0.2,0.5,0.5v10.9
				C46.1,48.9,45.8,49.1,45.5,49.1z"/>
		</g>
		<g>
			<path class="st2" d="M34.9,49.1c-0.3,0-0.5-0.2-0.5-0.5v-6.1c0-0.3,0.2-0.5,0.5-0.5s0.5,0.2,0.5,0.5v6.1
				C35.4,48.9,35.2,49.1,34.9,49.1z"/>
		</g>
		<g>
			<path class="st2" d="M57.2,49.1c-0.3,0-0.5-0.2-0.5-0.5V32.9c0-0.3,0.2-0.5,0.5-0.5c0.3,0,0.5,0.2,0.5,0.5v15.7
				C57.7,48.9,57.5,49.1,57.2,49.1z"/>
		</g>
	</g>
	<g class="st1">
		<circle class="st3" cx="23.9" cy="23.6" r="5.4"/>
		<path class="st2" d="M23.9,29.5c-3.3,0-6-2.7-6-6s2.7-6,6-6c3.3,0,6,2.7,6,6S27.2,29.5,23.9,29.5z M23.9,18.7
			c-2.7,0-4.9,2.2-4.9,4.9s2.2,4.9,4.9,4.9c2.7,0,4.9-2.2,4.9-4.9S26.6,18.7,23.9,18.7z"/>
	</g>
</g>
<g>
	<g>
		<g>
			<path class="st2" d="M39.8,38.2H20.3c-0.3,0-0.6-0.3-0.6-0.6S20,37,20.3,37h19.5c0.3,0,0.6,0.3,0.6,0.6S40.1,38.2,39.8,38.2z"/>
		</g>
	</g>
	<g>
		<g>
			<path class="st2" d="M64.2,70H6.1c-0.3,0-0.6-0.3-0.6-0.6c0-0.3,0.3-0.6,0.6-0.6h58.1c0.3,0,0.6,0.3,0.6,0.6
				C64.8,69.7,64.5,70,64.2,70z"/>
		</g>
	</g>
	<g>
		<g>
			<path class="st2" d="M24.9,46.5H9.4c-0.3,0-0.6-0.3-0.6-0.6s0.3-0.6,0.6-0.6h15.5c0.3,0,0.6,0.3,0.6,0.6S25.2,46.5,24.9,46.5z"/>
		</g>
	</g>
	<g>
		<g>
			<path class="st2" d="M6.1,46c-0.2,0-0.4-0.1-0.5-0.3c-0.2-0.3-0.1-0.6,0.2-0.8L20,37.1c0.3-0.2,0.6-0.1,0.8,0.2
				c0.2,0.3,0.1,0.6-0.2,0.8L6.4,45.9C6.3,46,6.2,46,6.1,46z"/>
		</g>
	</g>
	<g>
		<g>
			<path class="st2" d="M6.1,59c-0.2,0-0.4-0.1-0.5-0.3c-0.2-0.3-0.1-0.6,0.2-0.8l18.8-10.3c0.3-0.2,0.6-0.1,0.8,0.2
				c0.2,0.3,0.1,0.6-0.2,0.8L6.4,59C6.3,59,6.2,59,6.1,59z"/>
		</g>
	</g>
	<g>
		<g>
			<path class="st2" d="M51.6,43H40.1c-0.3,0-0.6-0.3-0.6-0.6s0.3-0.6,0.6-0.6h11.5c0.3,0,0.6,0.3,0.6,0.6S51.9,43,51.6,43z"/>
		</g>
	</g>
	<g>
		<g>
			<g>
				<path class="st2" d="M43.5,41.1L43.5,41.1c-0.3,0-0.6-0.3-0.6-0.6s0.3-0.6,0.6-0.6s0.6,0.3,0.6,0.6S43.9,41.1,43.5,41.1z"/>
			</g>
		</g>
		<g>
			<g>
				<path class="st2" d="M45.9,41.1L45.9,41.1c-0.3,0-0.6-0.3-0.6-0.6s0.3-0.6,0.6-0.6s0.6,0.3,0.6,0.6S46.2,41.1,45.9,41.1z"/>
			</g>
		</g>
		<g>
			<g>
				<path class="st2" d="M48.2,41.1L48.2,41.1c-0.3,0-0.6-0.3-0.6-0.6s0.3-0.6,0.6-0.6s0.6,0.3,0.6,0.6S48.5,41.1,48.2,41.1z"/>
			</g>
		</g>
	</g>
	<g>
		<g>
			<g>
				<path class="st2" d="M11.2,48.6L11.2,48.6c-0.3,0-0.6-0.3-0.6-0.6s0.3-0.6,0.6-0.6c0.3,0,0.6,0.3,0.6,0.6S11.5,48.6,11.2,48.6z"
					/>
			</g>
		</g>
		<g>
			<g>
				<path class="st2" d="M13.5,48.6L13.5,48.6c-0.3,0-0.6-0.3-0.6-0.6s0.3-0.6,0.6-0.6c0.3,0,0.6,0.3,0.6,0.6S13.8,48.6,13.5,48.6z"
					/>
			</g>
		</g>
		<g>
			<g>
				<path class="st2" d="M15.8,48.6L15.8,48.6c-0.3,0-0.6-0.3-0.6-0.6s0.3-0.6,0.6-0.6s0.6,0.3,0.6,0.6S16.1,48.6,15.8,48.6z"/>
			</g>
		</g>
	</g>
	<g>
		<g>
			<path class="st2" d="M18.1,48.6L18.1,48.6c-0.3,0-0.6-0.3-0.6-0.6s0.3-0.6,0.6-0.6s0.6,0.3,0.6,0.6S18.4,48.6,18.1,48.6z"/>
		</g>
	</g>
	<g>
		<g>
			<path class="st2" d="M20.4,48.6L20.4,48.6c-0.3,0-0.6-0.3-0.6-0.6s0.3-0.6,0.6-0.6s0.6,0.3,0.6,0.6S20.7,48.6,20.4,48.6z"/>
		</g>
	</g>
	<g>
		<g>
			<path class="st4" d="M28.8,65.5"/>
		</g>
	</g>
	<g>
		<g>
			<g>
				<path class="st2" d="M34.8,36c-0.3,0-0.6-0.3-0.6-0.6c0-1.5,0-2.7,0-3.7c0-1.2,0-2,0-2.5c0.1-1.5,1-2,1.7-2c1,0,1.7,0.9,1.7,2.1
					v6.1c0,0.3-0.3,0.6-0.6,0.6s-0.6-0.3-0.6-0.6v-6.1c0-0.4-0.2-0.9-0.6-0.9c-0.3,0-0.5,0.3-0.6,0.9c0,0.5,0,1.3,0,2.4
					c0,0.9,0,2.2,0,3.7C35.4,35.7,35.1,36,34.8,36z"/>
			</g>
		</g>
		<g>
			<g>
				<path class="st2" d="M41.8,36c-0.3,0-0.6-0.3-0.6-0.6v-8.7c0-0.3,0.3-0.6,0.6-0.6s0.6,0.3,0.6,0.6v8.7
					C42.3,35.7,42.1,36,41.8,36z"/>
			</g>
		</g>
		<g>
			<g>
				<path class="st2" d="M39.4,36c-0.3,0-0.6-0.3-0.6-0.6v-8.7c0-0.3,0.3-0.6,0.6-0.6s0.6,0.3,0.6,0.6v8.7C40,35.7,39.8,36,39.4,36z
					"/>
			</g>
		</g>
		<g>
			<g>
				<path class="st2" d="M32.5,36c-0.3,0-0.6-0.3-0.6-0.6v-8.7c0-0.3,0.3-0.6,0.6-0.6s0.6,0.3,0.6,0.6v8.7
					C33.1,35.7,32.8,36,32.5,36z"/>
			</g>
		</g>
	</g>
	<g>
		<g>
			<g>
				<path class="st2" d="M27.9,36c-0.3,0-0.6-0.3-0.6-0.6c0-1.5,0-2.7,0-3.7c0-1.2,0-1.9,0-2.5c0-0.6-0.2-0.9-0.6-0.9
					c-0.4,0-0.6,0.5-0.6,0.9v6.1c0,0.3-0.3,0.6-0.6,0.6S25,35.7,25,35.4v-6.1c0-1.2,0.7-2,1.7-2.1c0,0,0,0,0,0c0.8,0,1.7,0.5,1.7,2
					c0,0.5,0,1.3,0,2.5c0,0.9,0,2.1,0,3.7C28.5,35.7,28.2,36,27.9,36C27.9,36,27.9,36,27.9,36z"/>
			</g>
		</g>
		<g>
			<g>
				<path class="st2" d="M21,36c-0.3,0-0.6-0.3-0.6-0.6v-8.7c0-0.3,0.3-0.6,0.6-0.6s0.6,0.3,0.6,0.6v8.7C21.5,35.7,21.3,36,21,36z"
					/>
			</g>
		</g>
		<g>
			<g>
				<path class="st2" d="M23.3,36c-0.3,0-0.6-0.3-0.6-0.6v-8.7c0-0.3,0.3-0.6,0.6-0.6s0.6,0.3,0.6,0.6v8.7
					C23.8,35.7,23.6,36,23.3,36z"/>
			</g>
		</g>
		<g>
			<g>
				<path class="st2" d="M30.2,36c-0.3,0-0.6-0.3-0.6-0.6v-8.7c0-0.3,0.3-0.6,0.6-0.6s0.6,0.3,0.6,0.6v8.7
					C30.8,35.7,30.5,36,30.2,36z"/>
			</g>
		</g>
	</g>
	<g>
		<g>
			<g>
				<path class="st2" d="M29,46.5c-0.2,0-0.4-0.1-0.5-0.3c-0.2-0.3-0.1-0.6,0.2-0.8l15.5-9.2c0.3-0.2,0.6-0.1,0.8,0.2
					c0.2,0.3,0.1,0.6-0.2,0.8l-15.5,9.2C29.2,46.4,29.1,46.5,29,46.5z"/>
			</g>
		</g>
		<g>
			<g>
				<path class="st2" d="M64.2,47.4c-0.1,0-0.2,0-0.3-0.1l-17-10.1c-0.3-0.2-0.4-0.5-0.2-0.8c0.2-0.3,0.5-0.4,0.8-0.2l17,10.1
					c0.3,0.2,0.4,0.5,0.2,0.8C64.6,47.3,64.4,47.4,64.2,47.4z"/>
			</g>
		</g>
		<g>
			<g>
				<path class="st2" d="M47,37.2c-0.3,0-0.6-0.3-0.6-0.6c0-0.8,0-1.3,0-1.6c0-0.1,0-0.2,0-0.3c0-0.1,0-0.1,0-0.2
					c0-0.6-0.2-0.9-0.6-0.9c-0.4,0-0.6,0.5-0.6,0.9v2.1c0,0.3-0.3,0.6-0.6,0.6s-0.6-0.3-0.6-0.6v-2.1c0-1.2,0.7-2,1.7-2.1
					c0.8,0,1.7,0.5,1.7,2c0,0,0,0.1,0,0.1c0,0,0,0.1,0,0.1c0,0.1,0,0.1,0,0.2c0,0.2,0,0.7,0,1.8C47.6,36.9,47.4,37.2,47,37.2
					C47,37.2,47,37.2,47,37.2z"/>
			</g>
		</g>
	</g>
	<g>
		<g>
			<path class="st2" d="M28.6,68.2c-0.3,0-0.6-0.3-0.6-0.6c0-1.8,0-5.4,0-9.2c0-6.2,0-13.2,0-14c0-0.7-0.2-1.5-1-1.5c0,0,0,0,0,0
				c-0.7,0-1.1,0.6-1.1,1.6v23.2c0,0.3-0.3,0.6-0.6,0.6s-0.6-0.3-0.6-0.6V44.4c0-1.6,0.9-2.7,2.2-2.7c0,0,0,0,0.1,0
				c1,0,2.1,0.7,2.2,2.6c0,0.9,0,7.6,0,14.1c0,3.8,0,7.3,0,9.2C29.2,67.9,28.9,68.2,28.6,68.2C28.6,68.2,28.6,68.2,28.6,68.2z"/>
		</g>
	</g>
	<g>
		<g>
			<path class="st2" d="M8.8,67.9c-0.3,0-0.6-0.3-0.6-0.6V44.1c0-0.3,0.3-0.6,0.6-0.6s0.6,0.3,0.6,0.6v23.2
				C9.4,67.7,9.1,67.9,8.8,67.9z"/>
		</g>
	</g>
	<g>
		<g>
			<path class="st2" d="M61.3,67.9c-0.3,0-0.6-0.3-0.6-0.6V45.1c0-0.3,0.3-0.6,0.6-0.6s0.6,0.3,0.6,0.6v22.3
				C61.9,67.7,61.6,67.9,61.3,67.9z"/>
		</g>
	</g>
	<g>
		<g>
			<g>
				<g>
					<path class="st2" d="M44.6,63.7h-7.2c-0.3,0-0.6-0.3-0.6-0.6s0.3-0.6,0.6-0.6h7.2c0.3,0,0.6,0.3,0.6,0.6S44.9,63.7,44.6,63.7z"
						/>
				</g>
			</g>
			<g>
				<g>
					<g>
						<path class="st4" d="M43.5,60.2"/>
					</g>
				</g>
				<g>
					<g>
						<path class="st2" d="M42.9,51.7c-0.3,0-0.6-0.3-0.6-0.6v-2.9c0-1.3-1.1-1.9-1.4-1.9c-0.3,0-1.4,0.7-1.4,2v2.9
							c0,0.3-0.3,0.6-0.6,0.6s-0.6-0.3-0.6-0.6v-2.9c0-1.9,1.7-3.1,2.6-3.1c1.1,0,2.6,1.2,2.6,3.1v2.9
							C43.5,51.4,43.2,51.7,42.9,51.7z"/>
					</g>
				</g>
				<g>
					<g>
						<g>
							<path class="st2" d="M43.8,63.3c-0.3,0-0.6-0.3-0.6-0.6V51.3c0-0.3,0.3-0.6,0.6-0.6s0.6,0.3,0.6,0.6v11.4
								C44.4,63,44.2,63.3,43.8,63.3z"/>
						</g>
					</g>
					<g>
						<g>
							<path class="st2" d="M38.1,63c-0.3,0-0.6-0.3-0.6-0.6V51.3c0-0.3,0.3-0.6,0.6-0.6s0.6,0.3,0.6,0.6v11.2
								C38.6,62.8,38.4,63,38.1,63z"/>
						</g>
					</g>
					<g>
						<g>
							<path class="st2" d="M43.3,53.9h-4.6c-0.3,0-0.6-0.3-0.6-0.6s0.3-0.6,0.6-0.6h4.6c0.3,0,0.6,0.3,0.6,0.6S43.6,53.9,43.3,53.9
								z"/>
						</g>
					</g>
				</g>
			</g>
		</g>
		<g>
			<g>
				<g>
					<path class="st2" d="M54.4,63.7h-7.2c-0.3,0-0.6-0.3-0.6-0.6s0.3-0.6,0.6-0.6h7.2c0.3,0,0.6,0.3,0.6,0.6S54.7,63.7,54.4,63.7z"
						/>
				</g>
			</g>
			<g>
				<g>
					<g>
						<path class="st4" d="M53.3,60.2"/>
					</g>
				</g>
				<g>
					<g>
						<path class="st2" d="M52.7,51.7c-0.3,0-0.6-0.3-0.6-0.6v-2.9c0-1.3-1.1-1.9-1.4-1.9c-0.3,0-1.4,0.7-1.4,2v2.9
							c0,0.3-0.3,0.6-0.6,0.6s-0.6-0.3-0.6-0.6v-2.9c0-1.9,1.7-3.1,2.6-3.1c1.1,0,2.6,1.2,2.6,3.1v2.9
							C53.3,51.4,53.1,51.7,52.7,51.7z"/>
					</g>
				</g>
				<g>
					<g>
						<g>
							<path class="st2" d="M53.7,63.3c-0.3,0-0.6-0.3-0.6-0.6V51.3c0-0.3,0.3-0.6,0.6-0.6s0.6,0.3,0.6,0.6v11.4
								C54.2,63,54,63.3,53.7,63.3z"/>
						</g>
					</g>
					<g>
						<g>
							<path class="st2" d="M47.9,63c-0.3,0-0.6-0.3-0.6-0.6V51.3c0-0.3,0.3-0.6,0.6-0.6s0.6,0.3,0.6,0.6v11.2
								C48.5,62.8,48.2,63,47.9,63z"/>
						</g>
					</g>
					<g>
						<g>
							<path class="st2" d="M53.1,53.9h-4.6c-0.3,0-0.6-0.3-0.6-0.6s0.3-0.6,0.6-0.6h4.6c0.3,0,0.6,0.3,0.6,0.6S53.4,53.9,53.1,53.9
								z"/>
						</g>
					</g>
				</g>
			</g>
		</g>
	</g>
	<g>
		<g>
			<path class="st3" d="M20.3,21.3c0.8,1.2,1.5,2.3,2.3,3.6c0.9,0,1.7,0,2.8,0c0.5-1,1.1-2.2,1.8-3.6c0.9,1.3,1.6,2.4,2.4,3.6
				c1.5,0,0.3,0,2.2,0h-1.6c2,0,1.3,0,2.8,0c0.8-1.2,1.6-2.3,2.4-3.6c0.7,1.4,1.3,2.6,1.8,3.6c1.1,0,2,0,2.8,0
				c0.8-1.3,1.6-2.4,2.3-3.6L41,23c-2.7-5.2-5.9-11.2-9.6-18.3h-0.1c-3.7,7.1-6.9,13.1-9.6,18.3L20.3,21.3z"/>
		</g>
		<g>
			<path class="st2" d="M40.2,25.5h-2.8c-0.2,0-0.4-0.1-0.5-0.3l-1.4-2.7l-1.9,2.8c-0.1,0.2-0.3,0.3-0.5,0.3h-3.5
				c-0.2,0-0.4-0.1-0.5-0.3l-1.9-2.8l-1.4,2.7c-0.1,0.2-0.3,0.3-0.5,0.3h-2.8c-0.2,0-0.4-0.1-0.5-0.3l-2.3-3.6
				c-0.2-0.3-0.1-0.6,0.1-0.8c0.2-0.2,0.6-0.1,0.8,0.1l0.9,1.1l9.2-17.5c0.1-0.2,0.3-0.3,0.5-0.3h0.1c0.2,0,0.4,0.1,0.5,0.3L41.2,22
				l0.9-1.1c0.2-0.2,0.5-0.3,0.8-0.1c0.2,0.2,0.3,0.5,0.1,0.8l-2.3,3.6C40.5,25.4,40.4,25.5,40.2,25.5z M37.7,24.3h2.1l0.7-1
				L31.4,5.9l-9.1,17.4l0.7,1h2.1l1.6-3.3c0.1-0.2,0.3-0.3,0.5-0.3c0.2,0,0.4,0.1,0.5,0.3l2.2,3.3h2.9l2.2-3.3
				c0.1-0.2,0.3-0.3,0.5-0.3c0.2,0,0.4,0.1,0.5,0.3L37.7,24.3z"/>
		</g>
	</g>
	<g>
		<g>
			<circle class="st3" cx="31.4" cy="2.2" r="1.7"/>
		</g>
		<g>
			<path class="st2" d="M31.4,4.5c-1.2,0-2.2-1-2.2-2.2c0-1.2,1-2.2,2.2-2.2c1.2,0,2.2,1,2.2,2.2C33.6,3.5,32.6,4.5,31.4,4.5z
				 M31.4,1.2c-0.6,0-1.1,0.5-1.1,1.1s0.5,1.1,1.1,1.1c0.6,0,1.1-0.5,1.1-1.1S32,1.2,31.4,1.2z"/>
		</g>
	</g>
</g>
</svg>
